<svg width="220" height="220" viewBox="0 0 220 220" fill="none" xmlns="http://www.w3.org/2000/svg">
  <defs>
    <linearGradient id="bg" x1="28" y1="24" x2="186" y2="196" gradientUnits="userSpaceOnUse">
      <stop stop-color="#0F5E67"/>
      <stop offset="0.55" stop-color="#1CC7C1"/>
      <stop offset="1" stop-color="#97D700"/>
    </linearGradient>
    <linearGradient id="glass" x1="54" y1="56" x2="160" y2="166" gradientUnits="userSpaceOnUse">
      <stop stop-color="#F8F4EC" stop-opacity="0.95"/>
      <stop offset="1" stop-color="#F3E9D7" stop-opacity="0.72"/>
    </linearGradient>
  </defs>
  <rect x="14" y="14" width="192" height="192" rx="42" fill="url(#bg)"/>
  <rect x="30" y="30" width="160" height="160" rx="32" stroke="#F6EFD9" stroke-opacity="0.22" stroke-width="2"/>
  <path d="M54 130L83 100L112 126L138 87L167 130" stroke="#F6EFD9" stroke-opacity="0.34" stroke-width="10" stroke-linecap="round" stroke-linejoin="round"/>
  <rect x="49" y="118" width="28" height="40" rx="8" fill="url(#glass)"/>
  <rect x="84" y="96" width="33" height="62" rx="9" fill="url(#glass)"/>
  <rect x="124" y="108" width="24" height="50" rx="8" fill="url(#glass)"/>
  <path d="M42 154H178" stroke="#F6EFD9" stroke-opacity="0.34" stroke-width="6" stroke-linecap="round"/>
  <path d="M58 105L102 66L154 104" stroke="#F8F4EC" stroke-width="10" stroke-linecap="round" stroke-linejoin="round"/>
  <path d="M99 70V52" stroke="#F8F4EC" stroke-width="8" stroke-linecap="round"/>
  <circle cx="160" cy="60" r="12" fill="#F6EFD9" fill-opacity="0.26"/>
</svg>
